Coordinates
version=1
nRows=13
nColumns=22
inDegrees=yes

Units are S.I. units (second, meters, Newtons, ...)
If the header above contains a line with 'inDegrees', this indicates whether rotational values are in degrees (yes) or radians (no).

endheader
time	pelvis_tilt	pelvis_list	pelvis_rotation	pelvis_tx	pelvis_ty	pelvis_tz	hip_flexion_r	hip_adduction_r	hip_rotation_r	knee_angle_r	ankle_angle_r	subtalar_angle_r	hip_flexion_l	hip_adduction_l	hip_rotation_l	knee_angle_l	ankle_angle_l	subtalar_angle_l	lumbar_extension	lumbar_bending	lumbar_rotation
      0.01000000	      5.92672097	     -3.59695590	      6.39091065	     -1.33741372	      0.95427980	     -0.58602938	     -6.93673041	      6.30642171	    -11.42300330	     -9.27601440	      9.96636231	     -0.78569821	     -1.60200418	     -4.90751008	    -11.67906781	    -20.24550638	     22.27364214	     -8.93806265	    -12.44209581	      4.43479534	     -9.64158110
      0.02000000	      5.85746237	     -3.53215900	      6.45148023	     -1.33731836	      0.95428249	     -0.58643067	     -6.99176400	      6.23751428	    -11.48192632	     -9.05808279	      9.87261983	     -0.81970758	     -1.70895358	     -4.79616638	    -11.72759540	    -19.91993995	     22.18035669	     -8.95102340	    -12.32490046	      4.38761122	     -9.63432984
      0.03000000	      5.79128412	     -3.46070581	      6.52389760	     -1.33720797	      0.95430555	     -0.58689625	     -7.06807293	      6.16328003	    -11.54957841	     -8.81115562	      9.81343719	     -0.85724338	     -1.84820856	     -4.67536348	    -11.79660946	    -19.53908543	     22.05822418	     -8.94862720	    -12.20516173	      4.34053179	     -9.62096333
      0.04000000	      5.76315840	     -3.38730741	      6.60300859	     -1.33706662	      0.95439539	     -0.58742318	     -7.19804750	      6.08994653	    -11.64019025	     -8.54673450	      9.76891706	     -0.91585791	     -2.06369295	     -4.55136037	    -11.87776337	    -19.09399939	     21.89836438	     -8.89324857	    -12.12272879	      4.30678131	     -9.59325060
      0.05000000	      5.68539953	     -3.30986754	      6.69214812	     -1.33694497	      0.95440470	     -0.58796669	     -7.27253437	      6.00878377	    -11.71457768	     -8.28475282	      9.70950080	     -0.95832322	     -2.21725126	     -4.42277647	    -11.97478151	    -18.65797284	     21.78976978	     -8.79460647	    -11.97705121	      4.26269550	     -9.58671544
      0.06000000	      5.61313920	     -3.22671768	      6.78516459	     -1.33684118	      0.95442147	     -0.58853907	     -7.34760908	      5.91958638	    -11.79739421	     -8.03318889	      9.65927714	     -1.00063064	     -2.38348577	     -4.28709805	    -12.07400143	    -18.20523328	     21.66706975	     -8.63566128	    -11.84073750	      4.21966621	     -9.59298843
      0.07000000	      5.49863172	     -3.15201821	      6.88213841	     -1.33679279	      0.95435368	     -0.58911399	     -7.35420468	      5.83161735	    -11.86608460	     -7.81752791	      9.60593094	     -1.01927896	     -2.47887363	     -4.16055734	    -12.17520621	    -17.78933098	     21.63570498	     -8.53069555	    -11.65516246	      4.18219190	     -9.61177517
      0.08000000	      5.45390058	     -3.07144561	      6.98474499	     -1.33673576	      0.95439280	     -0.58972540	     -7.42642455	      5.74105598	    -11.96889988	     -7.62674348	      9.59640083	     -1.05770733	     -2.67232610	     -4.03199180	    -12.26951325	    -17.32929035	     21.47435186	     -8.21432116	    -11.55047626	      4.15579533	     -9.63008439
      0.09000000	      5.33423606	     -3.01002144	      7.07616947	     -1.33676364	      0.95430112	     -0.59031250	     -7.37723130	      5.65570360	    -12.02783969	     -7.49806539	      9.55389642	     -1.06675909	     -2.75520578	     -3.91358219	    -12.33680993	    -16.91296602	     21.43601578	     -8.10933503	    -11.36381112	      4.14051614	     -9.64538106
      0.10000000	      5.26030432	     -2.93356017	      7.17207811	     -1.33681393	      0.95427646	     -0.59093288	     -7.35303769	      5.55160910	    -12.13255194	     -7.42128115	      9.58353834	     -1.07602925	     -2.89435090	     -3.78149279	    -12.39474805	    -16.48238341	     21.27117168	     -7.86158298	    -11.23590379	      4.12217424	     -9.68618941
      0.11000000	      5.18139607	     -2.86247126	      7.25300688	     -1.33688213	      0.95422644	     -0.59152517	     -7.30350202	      5.44790621	    -12.20995634	     -7.37962683	      9.59765032	     -1.08034090	     -3.01551854	     -3.65538656	    -12.45442841	    -16.08034967	     21.18434001	     -7.65193736	    -11.10224812	      4.10380385	     -9.70369314
      0.12000000	      5.10025768	     -2.79797077	      7.31873157	     -1.33700460	      0.95415967	     -0.59208131	     -7.23060519	      5.34625652	    -12.27654152	     -7.36722559	      9.59426742	     -1.08367541	     -3.11663829	     -3.53525210	    -12.50120031	    -15.71055487	     21.16895526	     -7.52388412	    -10.97833394	      4.08885147	     -9.69460042
      0.13000000	      5.06713817	     -2.71531474	      7.39104001	     -1.33712944	      0.95416488	     -0.59264853	     -7.19248285	      5.22748607	    -12.37514537	     -7.39599399	      9.68114489	     -1.08564246	     -3.26770210	     -3.40136517	    -12.53794406	    -15.34747919	     20.99613764	     -7.27561126	    -10.91143569	      4.06078311	     -9.72467870
